<?xml version="1.0" standalone="no"?>
<svg xmlns:xlink="http://www.w3.org/1999/xlink" id="wave" style="transform:rotate(180deg); transition: 0.3s" viewBox="0 0 1440 130" version="1.1" xmlns="http://www.w3.org/2000/svg"><defs><linearGradient id="sw-gradient-0" x1="0" x2="0" y1="1" y2="0"><stop stop-color="rgba(255, 249, 234, 1)" offset="0%"/><stop stop-color="rgba(255, 249, 234, 1)" offset="100%"/></linearGradient></defs><path style="transform:translate(0, 0px); opacity:1" fill="url(#sw-gradient-0)" d="M0,104L21.8,88.8C43.6,74,87,43,131,36.8C174.5,30,218,48,262,54.2C305.5,61,349,56,393,47.7C436.4,39,480,26,524,30.3C567.3,35,611,56,655,67.2C698.2,78,742,78,785,69.3C829.1,61,873,43,916,39C960,35,1004,43,1047,39C1090.9,35,1135,17,1178,10.8C1221.8,4,1265,9,1309,21.7C1352.7,35,1396,56,1440,67.2C1483.6,78,1527,78,1571,80.2C1614.5,82,1658,87,1702,93.2C1745.5,100,1789,108,1833,99.7C1876.4,91,1920,65,1964,62.8C2007.3,61,2051,82,2095,88.8C2138.2,95,2182,87,2225,86.7C2269.1,87,2313,95,2356,91C2400,87,2444,69,2487,62.8C2530.9,56,2575,61,2618,62.8C2661.8,65,2705,65,2749,67.2C2792.7,69,2836,74,2880,73.7C2923.6,74,2967,69,3011,56.3C3054.5,43,3098,22,3120,10.8L3141.8,0L3141.8,130L3120,130C3098.2,130,3055,130,3011,130C2967.3,130,2924,130,2880,130C2836.4,130,2793,130,2749,130C2705.5,130,2662,130,2618,130C2574.5,130,2531,130,2487,130C2443.6,130,2400,130,2356,130C2312.7,130,2269,130,2225,130C2181.8,130,2138,130,2095,130C2050.9,130,2007,130,1964,130C1920,130,1876,130,1833,130C1789.1,130,1745,130,1702,130C1658.2,130,1615,130,1571,130C1527.3,130,1484,130,1440,130C1396.4,130,1353,130,1309,130C1265.5,130,1222,130,1178,130C1134.5,130,1091,130,1047,130C1003.6,130,960,130,916,130C872.7,130,829,130,785,130C741.8,130,698,130,655,130C610.9,130,567,130,524,130C480,130,436,130,393,130C349.1,130,305,130,262,130C218.2,130,175,130,131,130C87.3,130,44,130,22,130L0,130Z"/></svg>