<?xml version="1.0" standalone="no"?>
<svg xmlns:xlink="http://www.w3.org/1999/xlink" id="wave" style="transform:rotate(180deg); transition: 0.3s" viewBox="0 0 1440 140" version="1.1" xmlns="http://www.w3.org/2000/svg"><defs><linearGradient id="sw-gradient-0" x1="0" x2="0" y1="1" y2="0"><stop stop-color="rgba(255, 249, 234, 1)" offset="0%"/><stop stop-color="rgba(255, 249, 234, 1)" offset="100%"/></linearGradient></defs><path style="transform:translate(0, 0px); opacity:1" fill="url(#sw-gradient-0)" d="M0,84L18.5,70C36.9,56,74,28,111,35C147.7,42,185,84,222,88.7C258.5,93,295,61,332,39.7C369.2,19,406,9,443,9.3C480,9,517,19,554,30.3C590.8,42,628,56,665,58.3C701.5,61,738,51,775,42C812.3,33,849,23,886,25.7C923.1,28,960,42,997,56C1033.8,70,1071,84,1108,93.3C1144.6,103,1182,107,1218,91C1255.4,75,1292,37,1329,32.7C1366.2,28,1403,56,1440,58.3C1476.9,61,1514,37,1551,44.3C1587.7,51,1625,89,1662,86.3C1698.5,84,1735,42,1772,30.3C1809.2,19,1846,37,1883,49C1920,61,1957,65,1994,56C2030.8,47,2068,23,2105,25.7C2141.5,28,2178,56,2215,65.3C2252.3,75,2289,65,2326,56C2363.1,47,2400,37,2437,42C2473.8,47,2511,65,2548,70C2584.6,75,2622,65,2640,60.7L2658.5,56L2658.5,140L2640,140C2621.5,140,2585,140,2548,140C2510.8,140,2474,140,2437,140C2400,140,2363,140,2326,140C2289.2,140,2252,140,2215,140C2178.5,140,2142,140,2105,140C2067.7,140,2031,140,1994,140C1956.9,140,1920,140,1883,140C1846.2,140,1809,140,1772,140C1735.4,140,1698,140,1662,140C1624.6,140,1588,140,1551,140C1513.8,140,1477,140,1440,140C1403.1,140,1366,140,1329,140C1292.3,140,1255,140,1218,140C1181.5,140,1145,140,1108,140C1070.8,140,1034,140,997,140C960,140,923,140,886,140C849.2,140,812,140,775,140C738.5,140,702,140,665,140C627.7,140,591,140,554,140C516.9,140,480,140,443,140C406.2,140,369,140,332,140C295.4,140,258,140,222,140C184.6,140,148,140,111,140C73.8,140,37,140,18,140L0,140Z"/></svg>